<svg width="28" height="27" viewBox="0 0 28 27" fill="none" xmlns="http://www.w3.org/2000/svg">
<path fill-rule="evenodd" clip-rule="evenodd" d="M3.06664 23.5799H12.0492C12.5442 23.5799 12.8582 23.9913 12.6288 24.3792C12.5442 24.5203 12.3752 24.6143 12.2183 24.6848C12.1458 24.7201 12.053 24.7157 11.9602 24.7113C11.9293 24.7098 11.8983 24.7084 11.8681 24.7084H3.05457C1.64198 24.7084 0.567449 23.9913 0.144881 22.7806C0.120732 22.7042 0.0965832 22.6249 0.0724344 22.5455C0.0482896 22.4662 0.0241448 22.3868 0 22.3104V2.35136C0.0120734 2.3161 0.0254883 2.28084 0.0389031 2.24557C0.0657329 2.17505 0.0925626 2.10452 0.10866 2.03399C0.434642 0.835038 1.56954 -0.0230375 2.8131 0.000471468H16.6371C17.0959 0.000471468 17.3012 0.212052 17.3012 0.646967V4.17331V4.47892H18.8586C19.4019 4.47892 19.6192 4.6905 19.6192 5.2077V16.1393C19.6192 16.1672 19.6206 16.1938 19.622 16.2198C19.6247 16.2708 19.6272 16.32 19.6192 16.3744C19.5589 16.6683 19.3174 16.8564 19.0277 16.8564C18.7379 16.8564 18.5085 16.6565 18.4602 16.3627V16.0688V5.98349V5.63086H18.1101H3.65823C2.78895 5.63086 1.94381 5.63086 1.17112 5.06664C1.15904 5.2077 1.15904 5.28998 1.15904 5.37226V21.7462C1.15904 22.6396 1.59369 23.2743 2.37846 23.4976C2.59578 23.5564 2.83724 23.5799 3.06664 23.5799ZM2.90073 1.12321L2.90072 1.12321C2.83435 1.12609 2.76939 1.1289 2.70444 1.1289H2.71651C1.66613 1.22294 0.953797 2.23382 1.23149 3.22119C1.44881 3.99699 2.10077 4.46717 2.95798 4.46717H15.8886H16.1421V1.11715H15.8041H3.11493C3.04092 1.11715 2.97006 1.12021 2.90073 1.12321H2.90073H2.90073ZM27.2738 23.0159C27.6601 23.439 27.7326 23.9445 27.7084 24.4852L27.7326 24.4734C27.7222 24.6197 27.7252 24.7681 27.7281 24.9158C27.7321 25.1125 27.736 25.3081 27.7084 25.4961C27.5997 26.1896 27.1651 26.6363 26.489 26.8713C26.4407 26.8831 26.32 26.9301 26.32 26.9301H23.5069C23.4689 26.8894 23.4249 26.8499 23.3806 26.8101L23.3806 26.8101C23.2841 26.7234 23.186 26.6352 23.1447 26.5305C22.9877 26.1426 23.2895 25.8017 23.7604 25.8017H25.7042H25.9698C26.332 25.7782 26.5373 25.5901 26.5494 25.2375C26.5614 24.8731 26.5614 24.5205 26.5494 24.1561C26.5373 23.7799 26.3079 23.5683 25.9095 23.5683C25.6677 23.5683 25.4273 23.5657 25.1873 23.5631H25.1871H25.1869H25.1868H25.1868C24.7079 23.5579 24.2308 23.5527 23.7483 23.5683C23.4224 23.5801 23.1205 23.4155 23.0843 23.0276C23.0481 22.722 23.3258 22.4517 23.7 22.4282C23.9017 22.4203 24.1087 22.423 24.3139 22.4256H24.314C24.416 22.4269 24.5175 22.4282 24.6176 22.4282H25.9698C26.332 22.4164 26.5373 22.2401 26.5494 21.8992C26.5614 21.5348 26.5614 21.1587 26.5494 20.7943C26.5373 20.4181 26.32 20.2066 25.9095 20.2066H23.7725C23.3499 20.2066 23.0964 19.995 23.0964 19.6541C23.0843 19.3132 23.3258 19.0781 23.7242 19.0781C23.9264 19.0781 24.1286 19.0767 24.3309 19.0752C24.9376 19.0708 25.5442 19.0664 26.1509 19.1017C27.0444 19.1487 27.7084 19.8892 27.7084 20.759C27.7084 20.8609 27.7071 20.9628 27.7057 21.0646C27.703 21.2684 27.7004 21.4721 27.7084 21.6759C27.7326 22.1696 27.6239 22.6162 27.2738 23.0159ZM20.3557 23.5801C21.1284 23.5331 21.8528 22.8866 21.9011 22.1343C21.9373 21.6171 21.9373 21.0999 21.9011 20.5827C21.8528 19.7952 21.1888 19.1369 20.3799 19.1017C19.7732 19.0664 19.1665 19.0708 18.5598 19.0752C18.3576 19.0767 18.1553 19.0781 17.9531 19.0781C17.5426 19.0781 17.3012 19.3132 17.3132 19.6659C17.3132 19.995 17.5788 20.2066 17.9773 20.2066H20.0297C20.561 20.2066 20.7783 20.4181 20.7783 20.9236V21.6289C20.7783 22.2636 20.6334 22.4164 19.9814 22.4634C18.75 22.5457 17.6996 23.3568 17.4219 24.5322C17.345 24.8691 17.3367 25.2202 17.3283 25.5735V25.5736C17.3235 25.7751 17.3187 25.9772 17.3012 26.1778C17.2649 26.5187 17.3857 26.7773 17.6875 26.9536H21.5268C21.5671 26.9066 21.6154 26.8622 21.6637 26.8178C21.7603 26.729 21.8568 26.6402 21.889 26.5305C22.0218 26.1426 21.72 25.8252 21.2371 25.8252H18.7741H18.4602V25.5313C18.4602 24.2854 19.0639 23.6506 20.3436 23.5801H20.3557ZM15.5988 19.0898C15.9006 19.0898 16.1421 19.3132 16.1662 19.6423H16.1783V20.1948C16.1783 20.8521 16.177 21.5108 16.1756 22.1704C16.1729 23.4921 16.1702 24.8173 16.1783 26.1425C16.1904 26.4952 16.0938 26.7538 15.804 26.9536H15.3694C15.0796 26.7538 14.9951 26.4834 14.9951 26.1425V19.7716C14.9951 19.3484 15.2366 19.0898 15.5988 19.0898Z" fill="#3D86CF"/>
</svg>
