<svg width="29" height="27" viewBox="0 0 29 27" fill="none" xmlns="http://www.w3.org/2000/svg">
<path fill-rule="evenodd" clip-rule="evenodd" d="M15.3445 0C15.469 0.0223297 15.5944 0.0437974 15.7202 0.0653348C16.0599 0.123506 16.4027 0.182186 16.739 0.259729C19.916 1.03892 22.3534 3.65982 22.8142 6.82379C23.4447 11.0385 20.7042 14.9108 16.4237 15.8553C16.2835 15.884 16.1432 15.9084 15.9975 15.9337L15.9973 15.9337L15.9967 15.9338L15.9964 15.9339C15.9031 15.9501 15.8075 15.9667 15.7083 15.9851C15.737 16.0177 15.7657 16.0467 15.7929 16.0741L15.7929 16.0741C15.8347 16.1162 15.8729 16.1548 15.9023 16.1976C16.0357 16.3865 16.0235 16.5872 15.8659 16.7525C15.6961 16.9178 15.4779 16.9414 15.3081 16.7879C14.9686 16.4928 14.6533 16.1858 14.3501 15.8553C14.1804 15.6782 14.2289 15.4539 14.3986 15.2886L15.1626 14.5448C15.393 14.3205 15.6112 14.2851 15.8053 14.4268C16.0114 14.5684 16.0357 14.7573 15.8901 15.0879C17.03 14.9108 18.0729 14.4976 18.9823 13.8365C20.9953 12.3725 22.0381 10.401 22.0502 7.96895C22.0624 4.49803 19.3825 1.48754 15.8659 0.956275C11.8764 0.354176 8.19002 2.84521 7.45033 6.72934C6.98953 9.19676 7.72923 11.3454 9.5239 13.1399C9.82706 13.4469 9.88769 13.6712 9.69367 13.8837C9.4754 14.108 9.23287 14.0726 8.90547 13.7538C7.06229 11.9239 6.22558 9.72803 6.50449 7.16616C6.90465 3.57718 9.60879 0.790992 13.2466 0.118059C13.4613 0.0762599 13.6855 0.0437105 13.9023 0.0122236L13.9863 0H15.3445ZM28.562 22.4074C28.4044 22.6081 28.2104 22.679 27.9557 22.6672C25.385 22.6436 22.8385 22.8207 20.3041 23.2575C18.6307 23.5408 16.9815 23.9422 15.4536 24.7332C15.397 24.7647 15.3418 24.8001 15.2866 24.8355C15.1761 24.9064 15.0656 24.9772 14.9443 25.0165C14.7867 25.0638 14.5684 25.0992 14.4472 25.0165C13.2709 24.2846 11.9613 23.8832 10.6153 23.5644C8.6751 23.104 6.69854 22.8679 4.70984 22.7734C3.97582 22.7342 3.23642 22.7158 2.4988 22.6975H2.49878H2.49876H2.49874H2.49872H2.49869H2.49867H2.49865H2.49863H2.49861H2.49859H2.49857C2.12739 22.6882 1.75665 22.679 1.38727 22.6672C0.999234 22.6672 0.841594 22.5137 0.841594 22.1477C0.829468 16.6344 0.829468 11.1092 0.829468 5.5959C0.829468 5.24173 0.950729 5.11186 1.31451 5.06464C1.58132 5.03134 1.84813 5.00179 2.11929 4.97176C2.32877 4.94857 2.54085 4.92508 2.75753 4.89936V5.76119C2.418 5.7966 2.07846 5.83202 1.71468 5.86744V21.8053C3.7155 21.8172 5.72844 21.9234 7.71713 22.1831C9.70583 22.4429 11.6581 22.8207 13.5134 23.588C13.5195 23.5762 13.5286 23.5674 13.5377 23.5585C13.5468 23.5497 13.5559 23.5408 13.5619 23.529C13.5117 23.4703 13.4619 23.4115 13.4123 23.3529L13.4122 23.3529C13.2223 23.1287 13.0337 22.906 12.8223 22.6908C11.5611 21.4394 10.009 20.6248 8.33557 20.0345C6.96531 19.5504 5.53442 19.2553 4.09141 19.0428C3.75188 18.9956 3.64274 18.8657 3.64274 18.5351V3.50627C3.64274 3.14028 3.82463 2.95139 4.20054 3.01042C4.83608 3.11354 5.47162 3.22918 6.12587 3.34822L6.12609 3.34826L6.12641 3.34832L6.12652 3.34834L6.12682 3.3484C6.37105 3.39283 6.61788 3.43774 6.8683 3.48265C6.82212 3.56883 6.78083 3.65143 6.74132 3.73047L6.74132 3.73047L6.74128 3.73054L6.74127 3.73058C6.6563 3.90055 6.57958 4.05403 6.48026 4.19101C6.44389 4.25003 6.29837 4.25003 6.20136 4.23823C5.64356 4.13198 5.09788 4.02572 4.51582 3.90766V18.2164L4.66524 18.2442L4.66534 18.2442C5.18737 18.3413 5.71862 18.4402 6.24987 18.5587C8.3962 19.031 10.4334 19.7511 12.2281 21.0262C12.9799 21.5574 13.6468 22.1831 14.2531 22.9859V22.6436V18.6414C14.2531 18.3226 14.4229 18.1337 14.7139 18.1455C14.9686 18.1573 15.1262 18.3344 15.1262 18.6296V22.5845V22.9269C15.2596 22.7734 15.3566 22.6554 15.4415 22.5491C16.7269 21.0616 18.376 20.1053 20.2071 19.4088C21.6016 18.8775 23.0446 18.5233 24.524 18.2872C24.6089 18.2754 24.7058 18.2518 24.8028 18.2282L24.8028 18.2282L24.8029 18.2282V3.91947C24.6431 3.95058 24.4844 3.97966 24.327 4.0085L24.327 4.00851L24.3269 4.00852C23.9468 4.07817 23.5745 4.14639 23.2144 4.23823C22.984 4.29726 22.887 4.23823 22.8021 4.04934C22.7571 3.93977 22.6981 3.83471 22.6339 3.7202L22.6338 3.7201L22.6337 3.71994L22.6336 3.71968C22.5941 3.64928 22.5526 3.57528 22.5111 3.49446C23.2993 3.35279 24.0632 3.21112 24.815 3.06945C24.9242 3.04584 25.0454 3.02223 25.1667 3.02223C25.5184 2.99861 25.7002 3.15209 25.7245 3.50627V3.74238V18.3226C25.7245 18.9365 25.6275 19.0074 25.0091 19.1018C22.3656 19.5032 19.8433 20.1998 17.6363 21.7581C16.9209 22.2658 16.2903 22.8679 15.7447 23.6235C19.6129 22.1359 23.6267 21.888 27.6768 21.8053V5.86744C27.313 5.83202 26.9492 5.7966 26.5855 5.74938V4.88755C26.8006 4.91429 27.014 4.93767 27.2257 4.96085L27.2258 4.96086C27.5748 4.99909 27.9192 5.03681 28.2589 5.08825C28.336 5.0966 28.4071 5.16984 28.4764 5.24124C28.5052 5.27085 28.5336 5.30015 28.562 5.32437V22.4074ZM20.5345 7.95708C20.5345 4.86394 17.891 2.32568 14.6896 2.32568C11.4156 2.32568 8.84483 4.86394 8.84483 8.08694C8.84483 11.1801 11.4883 13.7065 14.7018 13.7065C17.9516 13.7065 20.5345 11.1565 20.5345 7.95708ZM19.6735 8.01611C19.6735 10.6724 17.4302 12.8565 14.6896 12.8683H14.7018C12.0098 12.8801 9.71792 10.6842 9.71792 8.05153C9.70579 5.3834 11.9491 3.1639 14.6533 3.1639C17.418 3.15209 19.6735 5.32437 19.6735 8.01611ZM3.76402 23.6944C4.22707 23.7413 4.69011 23.7838 5.15281 23.8262C6.20475 23.9227 7.2549 24.0191 8.29921 24.1667C10.4819 24.4736 12.6161 24.9222 14.5684 25.9966C14.6291 26.032 14.7503 26.032 14.811 25.9966C16.4359 25.0993 18.2305 24.6507 20.0495 24.3319C22.1958 23.9542 24.3543 23.7771 26.5248 23.7298C26.7795 23.7298 26.9735 23.8125 27.0341 24.0604C27.0948 24.3201 26.9129 24.5563 26.6219 24.5681C26.2672 24.5902 25.9125 24.6073 25.5578 24.6245L25.5576 24.6245C24.9665 24.6531 24.3754 24.6817 23.7843 24.7333C21.2136 24.9577 18.6671 25.2882 16.254 26.2563C15.9059 26.3975 15.5733 26.5762 15.2377 26.7565L15.2376 26.7565C15.1523 26.8024 15.0668 26.8483 14.9807 26.8938C14.7867 27.0001 14.6169 27.0355 14.4229 26.9174C13.089 26.091 11.6097 25.6778 10.0939 25.3472C7.70503 24.8396 5.26766 24.6507 2.81818 24.5562C2.5029 24.5562 2.33313 24.4028 2.32101 24.143C2.32101 23.8951 2.47865 23.718 2.75755 23.7062H3.72764V23.6826L3.76402 23.6944ZM15.878 6.04454C15.4415 6.43413 15.0171 6.81192 14.5684 7.20152H14.5563C14.4795 7.12679 14.4028 7.06374 14.3302 7.00415L14.3302 7.00411C14.2996 6.97899 14.2698 6.95449 14.241 6.92998C14.144 6.83553 14.047 6.75289 13.9378 6.67025C13.7074 6.49316 13.4528 6.49316 13.283 6.67025C13.1011 6.85915 13.1254 7.11888 13.3558 7.31957C13.6252 7.56 13.8946 7.7802 14.1736 8.00825L14.241 8.06334C14.4835 8.26404 14.6897 8.26404 14.9201 8.06334L15.0532 7.94578L15.0533 7.94571C15.5284 7.52626 15.9942 7.115 16.4601 6.69386C16.545 6.62303 16.642 6.49316 16.6298 6.41052C16.5935 6.25705 16.5328 6.06815 16.4116 5.97371C16.2418 5.83204 16.0357 5.90287 15.878 6.04454ZM15.1262 4.01403C15.1262 4.26196 14.9201 4.43904 14.6654 4.42724C14.4229 4.41543 14.2531 4.22654 14.2531 3.99042C14.2531 3.7425 14.4593 3.56541 14.7139 3.57722C14.9565 3.58902 15.1262 3.77792 15.1262 4.01403ZM11.0033 7.99246C10.9912 7.75635 10.8093 7.59106 10.5668 7.59106C10.3242 7.59106 10.1424 7.76815 10.1424 8.00427C10.1424 8.25219 10.3242 8.42928 10.5789 8.42928C10.8335 8.42928 11.0033 8.24039 11.0033 7.99246ZM19.237 8.00431C19.237 8.24042 19.0672 8.41751 18.8247 8.42932C18.57 8.42932 18.376 8.26404 18.376 8.01611C18.376 7.76819 18.5579 7.57929 18.8126 7.5911C19.0551 7.5911 19.237 7.76819 19.237 8.00431ZM14.2652 12.0066C14.2531 12.2545 14.435 12.4434 14.6897 12.4434C14.9322 12.4434 15.1262 12.2782 15.1262 12.042C15.1383 11.7941 14.9564 11.6052 14.7018 11.6052C14.4593 11.6052 14.2652 11.7705 14.2652 12.0066ZM12.2159 5.1828C12.2159 5.41892 12.0341 5.59601 11.8037 5.60782C11.5611 5.60782 11.355 5.43073 11.355 5.1828C11.355 4.95849 11.5733 4.74599 11.8037 4.75779C12.0341 4.75779 12.2159 4.94669 12.2281 5.1828H12.2159ZM17.5878 5.60783C17.8304 5.61964 18.0486 5.43075 18.0486 5.19463C18.0486 4.97032 17.8304 4.75781 17.6 4.75781C17.3696 4.76962 17.1755 4.95851 17.1755 5.18282C17.1755 5.40713 17.3453 5.60783 17.5878 5.60783ZM12.2159 10.8496C12.2159 11.0975 12.0098 11.2864 11.7672 11.2746C11.5368 11.2746 11.3428 11.0621 11.3428 10.8496C11.3428 10.6135 11.549 10.4246 11.7915 10.4246C12.034 10.4246 12.2038 10.6135 12.2038 10.8496H12.2159ZM17.1755 10.826C17.1634 11.0621 17.3574 11.2746 17.5999 11.2746C17.8303 11.2746 18.0486 11.0621 18.0486 10.8378C18.0486 10.6135 17.8546 10.4246 17.6121 10.4246C17.3695 10.4246 17.1755 10.5898 17.1755 10.826Z" fill="#3D86CF"/>
</svg>
