<svg width="577" height="227" viewBox="0 0 577 227" fill="none" xmlns="http://www.w3.org/2000/svg">
<g clip-path="url(#clip0_35_46)">
<path opacity="0.45" d="M543.573 77.1131C509.806 39.6755 451.583 29.5962 400.11 43.8463C360.766 54.7366 324.776 75.2759 287.337 87.5234C245.412 101.244 199.537 103.197 159.18 86.2159C146.832 81.019 137.582 79.1984 126.763 73.0913C110.466 63.8891 93.9099 54.7366 77.1756 45.8655C39.0817 25.6903 -10.3669 0.698835 -57.5525 13.4925C-94.2568 23.4394 -118.753 57.0041 -119.964 87.6393C-121.532 127.328 -94.0186 166.337 -69.8204 198.876C-43.1209 234.791 -3.65732 267.892 3.31035 310.841C18.1985 402.697 42.0196 414.994 74.7538 432.256C123.944 458.208 200.47 440.614 247.099 414.431C304.012 382.472 285.809 354.866 350.701 303.029C404.279 260.213 427.246 270.424 501.171 213.738C559.235 169.201 567.513 144.309 566.977 125.855C566.242 100.499 548.416 82.4755 543.592 77.1131H543.573Z" fill="#D3D3F0"/>
</g>
<defs>
<clipPath id="clip0_35_46">
<rect width="577" height="227" fill="white"/>
</clipPath>
</defs>
</svg>
