<svg width="338" height="451" viewBox="0 0 338 451" fill="none" xmlns="http://www.w3.org/2000/svg">
<path opacity="0.45" d="M3.45754 -2.38354C-7.95928 44.7984 15.8809 90.2339 55.507 115.151C85.8022 134.189 121.95 144.638 152.258 161.514C186.206 180.417 212.916 209.678 221.483 247.788C224.093 259.44 227.723 266.806 228.754 278.026C230.332 294.956 232.097 312.026 234.163 329.026C238.902 367.715 246.041 417.154 282.137 440.164C310.223 458.074 350.456 452.269 375.622 432.897C408.224 407.783 424.318 363.73 437.068 326.148C451.142 284.666 455.964 236.563 486.482 203.602C551.776 133.158 548.546 109.166 544.416 75.9798C538.188 26.0751 482.166 -13.3134 435.68 -27.1353C378.927 -44.0046 366.827 -13.6832 289.829 -22.7609C226.232 -30.2649 221.807 -52.298 135.957 -64.184C68.5284 -73.5247 44.0843 -62.6398 29.6125 -50.112C9.74693 -32.9138 5.10498 -9.15031 3.4559 -2.40886L3.45754 -2.38354Z" fill="#D3D3F0"/>
</svg>
